<svg width="612" height="622" viewBox="0 0 612 622" fill="none" xmlns="http://www.w3.org/2000/svg">
<rect x="222.469" width="389.531" height="617.876" rx="24" fill="#E9E8F3"/>
<rect x="247.881" y="446.651" width="46.1728" height="48.6913" transform="rotate(25.9924 247.881 446.651)" fill="#FFD600"/>
<rect x="234.979" y="357.026" width="78.0741" height="82.2715" rx="39.037" transform="rotate(10.9924 234.979 357.026)" fill="#FFD600"/>
<path d="M25.7086 598.616C33.3831 612.863 49.6711 618.979 49.6711 618.979C49.6711 618.979 53.5163 601.996 45.8418 587.749C38.1673 573.503 21.8793 567.387 21.8793 567.387C21.8793 567.387 18.0341 584.37 25.7086 598.616Z" fill="#201F30"/>
<path d="M30.9838 593.929C44.8394 602.274 50.1756 618.848 50.1756 618.848C50.1756 618.848 33.0475 621.893 19.1919 613.549C5.33624 605.205 0 588.631 0 588.631C0 588.631 17.1282 585.585 30.9838 593.929Z" fill="#FFD600"/>
<path d="M341.628 180.263H255.179V181.5H341.628V180.263Z" fill="#B0B0B0"/>
<path d="M318.164 181.191H316.929V192.626H318.164V181.191Z" fill="#B0B0B0"/>
<path d="M280.497 181.191H279.262V192.626H280.497V181.191Z" fill="#B0B0B0"/>
<path d="M385.471 239.601H299.021V240.838H385.471V239.601Z" fill="#B0B0B0"/>
<path d="M323.721 228.476H322.486V239.911H323.721V228.476Z" fill="#B0B0B0"/>
<path d="M361.388 228.476H360.153V239.911H361.388V228.476Z" fill="#B0B0B0"/>
<path d="M500.325 267.416H413.876V268.652H500.325V267.416Z" fill="#B0B0B0"/>
<path d="M438.575 256.291H437.34V267.726H438.575V256.291Z" fill="#B0B0B0"/>
<path d="M476.242 256.291H475.007V267.726H476.242V256.291Z" fill="#B0B0B0"/>
<path d="M491.68 554.218H405.23V555.454H491.68V554.218Z" fill="#B0B0B0"/>
<path d="M429.93 543.092H428.695V554.527H429.93V543.092Z" fill="#B0B0B0"/>
<path d="M467.597 543.092H466.362V554.527H467.597V543.092Z" fill="#B0B0B0"/>
<path d="M344.098 355.806H257.648V357.042H344.098V355.806Z" fill="#B0B0B0"/>
<path d="M282.349 344.68H281.114V356.115H282.349V344.68Z" fill="#B0B0B0"/>
<path d="M320.016 344.68H318.781V356.115H320.016V344.68Z" fill="#B0B0B0"/>
<path d="M371.269 504.769H284.819V506.005H371.269V504.769Z" fill="#B0B0B0"/>
<path d="M309.519 493.643H308.284V505.078H309.519V493.643Z" fill="#B0B0B0"/>
<path d="M347.186 493.643H345.951V505.078H347.186V493.643Z" fill="#B0B0B0"/>
<path d="M509.587 459.647H423.138V460.883H509.587V459.647Z" fill="#B0B0B0"/>
<path d="M447.838 448.521H446.603V459.956H447.838V448.521Z" fill="#B0B0B0"/>
<path d="M485.505 448.521H484.27V459.956H485.505V448.521Z" fill="#B0B0B0"/>
<path d="M238.167 597.346L94.6358 569.466L94.8365 568.433L237.335 596.112L247.073 545.981L116.64 520.646L112.871 506.202L113.889 505.935L117.491 519.738L248.306 545.148L238.167 597.346Z" fill="#201F30"/>
<path d="M108.82 598.501C114.808 599.664 120.607 595.748 121.771 589.754C122.935 583.76 119.025 577.958 113.037 576.795C107.049 575.632 101.25 579.548 100.086 585.542C98.9219 591.536 102.832 597.338 108.82 598.501Z" fill="#3F3D56"/>
<path d="M215.694 619.261C221.682 620.424 227.481 616.507 228.645 610.514C229.809 604.52 225.899 598.718 219.911 597.554C213.923 596.391 208.125 600.307 206.96 606.301C205.796 612.295 209.706 618.097 215.694 619.261Z" fill="#3F3D56"/>
<path d="M387.247 409.098C390.954 409.818 394.544 407.393 395.264 403.683C395.985 399.972 393.564 396.381 389.857 395.661C386.151 394.941 382.561 397.365 381.84 401.075C381.12 404.786 383.54 408.378 387.247 409.098Z" fill="#3F3D56"/>
<path d="M266.77 532.109L105.439 500.772L92.7168 379.776L324.905 424.877L324.563 425.508L266.77 532.109ZM106.404 499.887L266.213 530.928L323.297 425.637L93.9117 381.081L106.404 499.887Z" fill="#201F30"/>
<path d="M212.945 498.433L124.878 496.945L106.886 433.669L233.633 435.811L233.512 436.18L212.945 498.433Z" fill="#00FFC2"/>
<path d="M329.779 415.235L328.833 414.776L340.64 390.391L380.277 398.09L380.076 399.124L341.234 391.579L329.779 415.235Z" fill="#201F30"/>
<path d="M306.576 457.249L97.2715 416.593L97.0707 417.627L306.376 458.283L306.576 457.249Z" fill="#201F30"/>
<path d="M287.194 493.002L101.514 456.935L101.313 457.968L286.993 494.035L287.194 493.002Z" fill="#201F30"/>
<path d="M209.224 402.943L208.191 402.742L186.207 515.924L187.239 516.124L209.224 402.943Z" fill="#201F30"/>
<path d="M255.462 411.89L226.065 523.63L227.083 523.897L256.479 412.158L255.462 411.89Z" fill="#201F30"/>
<path d="M161.988 393.733L160.944 393.6L146.329 508.213L147.373 508.346L161.988 393.733Z" fill="#201F30"/>
<path d="M367.663 196.314C367.663 196.314 376.69 222.031 371.135 225.988C365.58 229.944 389.883 262.256 389.883 262.256L419.046 254.343L403.076 227.307C403.076 227.307 400.993 200.271 400.993 196.314C400.993 192.358 367.663 196.314 367.663 196.314Z" fill="#FFD6BA"/>
<path opacity="0.1" d="M367.663 196.314C367.663 196.314 376.69 222.031 371.135 225.988C365.58 229.944 389.883 262.256 389.883 262.256L419.046 254.343L403.076 227.307C403.076 227.307 400.993 200.271 400.993 196.314C400.993 192.358 367.663 196.314 367.663 196.314Z" fill="#B0B0B0"/>
<path d="M352.512 379.632C352.512 379.632 349.877 412.602 352.512 429.747C355.147 446.892 359.1 494.369 359.1 494.369C359.1 494.369 359.1 584.05 373.592 585.368C388.085 586.687 398.625 588.006 399.943 582.731C401.26 577.456 393.355 574.818 397.308 572.18C401.26 569.543 402.578 560.311 397.308 549.76C392.038 539.21 397.308 432.385 397.308 432.385L422.341 499.645C422.341 499.645 424.976 555.035 427.611 562.948C430.246 570.861 424.976 585.368 434.198 586.687C443.421 588.006 453.961 580.093 459.231 577.455C464.501 574.818 451.326 574.818 453.961 573.499C456.596 572.18 464.501 568.224 461.866 566.905C459.231 565.586 456.596 502.282 456.596 502.282C456.596 502.282 449.35 367.103 440.127 361.827C430.905 356.552 424.976 365.638 424.976 365.638L352.512 379.632Z" fill="#201F30"/>
<path d="M376.227 580.093V590.644C376.227 590.644 364.369 619.323 376.227 619.323C388.085 619.323 397.307 622.295 397.307 618.339V582.731L376.227 580.093Z" fill="#201F30"/>
<path d="M450.549 579.05L452.279 589.458C452.279 589.458 468.681 615.804 456.984 617.749C445.287 619.694 436.677 624.139 436.028 620.236L430.187 585.11L450.549 579.05Z" fill="#201F30"/>
<path d="M375.091 214.187C387.715 217.677 400.781 210.262 404.274 197.625C407.768 184.989 400.366 171.916 387.742 168.426C375.118 164.936 362.052 172.351 358.558 184.987C355.065 197.624 362.467 210.697 375.091 214.187Z" fill="#FFD6BA"/>
<path d="M378.863 235.879C378.863 235.879 385.45 255.662 395.99 251.705L406.531 247.749L424.976 374.356C424.976 374.356 410.483 395.457 389.403 382.269C368.322 369.081 378.863 235.879 378.863 235.879Z" fill="white"/>
<path d="M397.308 231.923L403.236 219.394C403.236 219.394 438.151 235.879 443.421 241.154C448.691 246.43 448.691 254.343 448.691 254.343L439.468 287.313C439.468 287.313 442.103 359.849 442.103 362.486C442.103 365.124 451.326 379.631 444.738 374.356C438.151 369.081 436.833 363.805 431.563 371.718C426.293 379.631 414.435 388.863 414.435 388.863L397.308 231.923Z" fill="#FFD600"/>
<path d="M443.421 326.878L439.468 363.806C439.468 363.806 415.753 384.907 421.023 386.226C426.293 387.544 428.928 382.269 428.928 382.269C428.928 382.269 438.151 391.501 443.421 386.226C448.691 380.95 461.866 330.835 461.866 330.835L443.421 326.878Z" fill="#FFD6BA"/>
<path d="M390.844 159.104C385.827 157.522 380.429 155.933 375.401 157.486C373.056 158.314 370.865 159.527 368.917 161.075C363.3 165.19 357.873 170.821 357.613 177.782L359.602 177.577C359.119 179.321 358.256 180.936 357.074 182.305C357.53 181.639 358.048 183.063 357.615 183.745L353.843 189.692C357.423 189.398 360.799 192.931 360.346 196.498C362.657 189.018 365.83 180.584 373.164 177.857C376.863 176.482 380.952 176.881 384.873 177.315C388.49 177.715 392.267 178.187 395.268 180.245C398.269 182.304 400.155 186.48 398.455 189.701C400.13 189.597 401.546 191.136 401.906 192.777C402.266 194.417 401.839 196.117 401.414 197.742C402.726 199.346 405.214 197.569 406.399 195.869C409.182 191.877 411.869 187.551 412.305 182.705C412.741 177.858 410.203 172.41 405.522 171.098C406.263 170.63 406.794 169.892 407.002 169.039L403.23 167.645C404.249 167.777 405.282 167.551 406.153 167.004C404.13 168.283 393.327 159.887 390.844 159.104Z" fill="#201F30"/>
<path d="M385.45 227.966C385.45 227.966 374.725 217.446 370.865 218.09C367.005 218.734 361.735 227.966 361.735 227.966C361.735 227.966 330.114 238.517 331.432 249.067C332.749 259.618 347.242 311.052 347.242 311.052C347.242 311.052 359.1 373.037 348.559 379.631C338.019 386.225 398.625 403.37 399.943 395.457C401.26 387.544 403.895 308.415 399.943 296.545C395.99 284.676 385.45 227.966 385.45 227.966Z" fill="#FFD600"/>
<path d="M431.563 249.068H447.855C447.855 249.068 459.231 299.183 460.549 304.458C461.866 309.733 464.502 334.791 463.184 334.791C461.866 334.791 435.516 329.516 435.516 333.472L431.563 249.068Z" fill="#FFD600"/>
<path d="M431.012 381.564H368.645C362.559 353.54 362.05 326.462 368.645 300.593H431.012C420.947 325.997 420.318 352.889 431.012 381.564Z" fill="#DFF0FF"/>
<path d="M343.289 342.945L361.734 350.858C361.734 350.858 397.307 356.133 397.307 341.626C397.307 327.119 361.734 335.032 361.734 335.032L349.876 331.237L343.289 342.945Z" fill="#FFD6BA"/>
<path d="M347.241 241.155L331.431 245.111L319.573 315.009C319.573 315.009 315.621 333.472 322.208 334.791C328.796 336.11 347.241 346.661 347.241 346.661C347.241 346.661 349.876 326.878 355.147 326.878L341.971 316.328L349.876 270.169L347.241 241.155Z" fill="#FFD600"/>
<path d="M123.652 376.203H37.2031V377.439H123.652V376.203Z" fill="#B0B0B0"/>
<path d="M61.903 365.077H60.668V376.512H61.903V365.077Z" fill="#B0B0B0"/>
<path d="M99.5699 365.077H98.335V376.512H99.5699V365.077Z" fill="#B0B0B0"/>
<path d="M153.91 193.244H67.4609V194.48H153.91V193.244Z" fill="#B0B0B0"/>
<path d="M130.445 194.171H129.21V205.606H130.445V194.171Z" fill="#B0B0B0"/>
<path d="M92.7779 194.171H91.543V205.606H92.7779V194.171Z" fill="#B0B0B0"/>
<path d="M257.767 315.01H171.317V316.247H257.767V315.01Z" fill="#B0B0B0"/>
<path d="M234.302 315.938H233.067V327.373H234.302V315.938Z" fill="#B0B0B0"/>
<path d="M196.635 315.938H195.4V327.373H196.635V315.938Z" fill="#B0B0B0"/>
<path d="M94.0128 314.392H7.56348V315.629H94.0128V314.392Z" fill="#B0B0B0"/>
<path d="M70.5485 315.32H69.3135V326.755H70.5485V315.32Z" fill="#B0B0B0"/>
<path d="M32.8805 315.32H31.6455V326.755H32.8805V315.32Z" fill="#B0B0B0"/>
<path d="M197.752 252.582H111.303V253.818H197.752V252.582Z" fill="#B0B0B0"/>
<path d="M136.003 241.456H134.768V252.891H136.003V241.456Z" fill="#B0B0B0"/>
<path d="M173.67 241.456H172.435V252.891H173.67V241.456Z" fill="#B0B0B0"/>
</svg>
