<svg width="33" height="32" viewBox="0 0 33 32" fill="none" xmlns="http://www.w3.org/2000/svg">
<g clip-path="url(#clip0_336_1197)">
<path d="M28.5 0H4.5C3.43913 0 2.42172 0.421427 1.67157 1.17157C0.921427 1.92172 0.5 2.93913 0.5 4L0.5 32H32.5V4C32.5 2.93913 32.0786 1.92172 31.3284 1.17157C30.5783 0.421427 29.5609 0 28.5 0V0ZM4.5 2.66667H28.5C28.8536 2.66667 29.1928 2.80714 29.4428 3.05719C29.6929 3.30724 29.8333 3.64638 29.8333 4V27.448L15.328 12.9427C14.5779 12.1928 13.5607 11.7715 12.5 11.7715C11.4393 11.7715 10.4221 12.1928 9.672 12.9427L3.16667 19.448V4C3.16667 3.64638 3.30714 3.30724 3.55719 3.05719C3.80724 2.80714 4.14638 2.66667 4.5 2.66667ZM3.16667 23.2187L11.5573 14.828C11.8074 14.578 12.1464 14.4376 12.5 14.4376C12.8536 14.4376 13.1926 14.578 13.4427 14.828L27.948 29.3333H3.16667V23.2187Z" fill="#B0B0B0"/>
<path d="M21.833 13.3325C22.6241 13.3325 23.3975 13.0979 24.0553 12.6584C24.7131 12.2189 25.2258 11.5942 25.5285 10.8633C25.8313 10.1324 25.9105 9.32808 25.7562 8.55216C25.6018 7.77624 25.2208 7.0635 24.6614 6.50409C24.102 5.94468 23.3893 5.56372 22.6134 5.40938C21.8374 5.25504 21.0332 5.33425 20.3023 5.637C19.5714 5.93975 18.9467 6.45244 18.5071 7.11024C18.0676 7.76804 17.833 8.5414 17.833 9.33252C17.833 10.3934 18.2544 11.4108 19.0046 12.1609C19.7547 12.9111 20.7721 13.3325 21.833 13.3325ZM21.833 7.99919C22.0967 7.99919 22.3545 8.07739 22.5738 8.2239C22.793 8.3704 22.9639 8.57864 23.0648 8.82228C23.1658 9.06591 23.1922 9.334 23.1407 9.59264C23.0893 9.85128 22.9623 10.0889 22.7758 10.2753C22.5893 10.4618 22.3518 10.5888 22.0931 10.6402C21.8345 10.6917 21.5664 10.6653 21.3228 10.5644C21.0791 10.4634 20.8709 10.2925 20.7244 10.0733C20.5779 9.85402 20.4997 9.59623 20.4997 9.33252C20.4997 8.9789 20.6402 8.63976 20.8902 8.38971C21.1402 8.13966 21.4794 7.99919 21.833 7.99919Z" fill="#B0B0B0"/>
</g>
<defs>
<clipPath id="clip0_336_1197">
<rect width="32" height="32" fill="white" transform="translate(0.5)"/>
</clipPath>
</defs>
</svg>
