<svg width="20" height="24" viewBox="0 0 20 24" fill="none" xmlns="http://www.w3.org/2000/svg">
<path d="M19 4H15.9C15.6679 2.87141 15.0538 1.85735 14.1613 1.12872C13.2687 0.40009 12.1522 0.00145452 11 0L9 0C7.8478 0.00145452 6.73132 0.40009 5.83875 1.12872C4.94618 1.85735 4.3321 2.87141 4.1 4H1C0.734784 4 0.48043 4.10536 0.292893 4.29289C0.105357 4.48043 0 4.73478 0 5C0 5.26522 0.105357 5.51957 0.292893 5.70711C0.48043 5.89464 0.734784 6 1 6H2V19C2.00159 20.3256 2.52888 21.5964 3.46622 22.5338C4.40356 23.4711 5.67441 23.9984 7 24H13C14.3256 23.9984 15.5964 23.4711 16.5338 22.5338C17.4711 21.5964 17.9984 20.3256 18 19V6H19C19.2652 6 19.5196 5.89464 19.7071 5.70711C19.8946 5.51957 20 5.26522 20 5C20 4.73478 19.8946 4.48043 19.7071 4.29289C19.5196 4.10536 19.2652 4 19 4ZM9 2H11C11.6203 2.00076 12.2251 2.19338 12.7316 2.55144C13.2381 2.90951 13.6214 3.41549 13.829 4H6.171C6.37858 3.41549 6.7619 2.90951 7.26839 2.55144C7.77487 2.19338 8.37973 2.00076 9 2ZM16 19C16 19.7956 15.6839 20.5587 15.1213 21.1213C14.5587 21.6839 13.7956 22 13 22H7C6.20435 22 5.44129 21.6839 4.87868 21.1213C4.31607 20.5587 4 19.7956 4 19V6H16V19Z" fill="white"/>
</svg>
